<svg width="21" height="21" viewBox="0 0 21 21" fill="none" xmlns="http://www.w3.org/2000/svg">
<path d="M10.9167 -7.43866e-05C8.1782 -7.43866e-05 7.83482 0.0115331 6.75932 0.0606048C5.68607 0.109596 4.95308 0.280026 4.31166 0.529307C3.64859 0.786994 3.08627 1.13178 2.52571 1.69234C1.96515 2.2529 1.62036 2.81522 1.36268 3.47829C1.1134 4.11967 0.942967 4.85266 0.893975 5.92591C0.844903 7.00141 0.833336 7.34479 0.833336 10.0833C0.833336 12.8217 0.844903 13.1651 0.893975 14.2406C0.942967 15.3139 1.1134 16.0468 1.36268 16.6882C1.62036 17.3513 1.96515 17.9136 2.52571 18.4742C3.08627 19.0348 3.64859 19.3796 4.31166 19.6372C4.95308 19.8865 5.68607 20.057 6.75932 20.1059C7.83482 20.155 8.1782 20.1666 10.9167 20.1666C13.6551 20.1666 13.9985 20.155 15.074 20.1059C16.1473 20.057 16.8803 19.8865 17.5216 19.6372C18.1847 19.3796 18.747 19.0348 19.3076 18.4742C19.8682 17.9136 20.213 17.3513 20.4707 16.6882C20.7199 16.0468 20.8904 15.3139 20.9393 14.2406C20.9884 13.1651 21 12.8217 21 10.0833C21 7.34479 20.9884 7.00141 20.9393 5.92591C20.8904 4.85266 20.7199 4.11967 20.4707 3.47829C20.213 2.81522 19.8682 2.2529 19.3076 1.69234C18.747 1.13178 18.1847 0.786994 17.5216 0.529307C16.8803 0.280026 16.1473 0.109596 15.074 0.0606048C13.9985 0.0115331 13.6551 -7.43866e-05 10.9167 -7.43866e-05ZM10.9167 1.81678C13.609 1.81678 13.928 1.82703 14.9912 1.87554C15.9743 1.92041 16.5082 2.08467 16.8635 2.22272C17.3342 2.40564 17.6701 2.62418 18.0229 2.97701C18.3758 3.32984 18.5943 3.66577 18.7772 4.1364C18.9153 4.49171 19.0796 5.02561 19.1244 6.00873C19.1729 7.07197 19.1832 7.3909 19.1832 10.0833C19.1832 12.7756 19.1729 13.0945 19.1244 14.1578C19.0796 15.1409 18.9153 15.6748 18.7772 16.0301C18.5943 16.5008 18.3758 16.8367 18.0229 17.1895C17.6701 17.5424 17.3342 17.7609 16.8635 17.9438C16.5082 18.0819 15.9743 18.2461 14.9912 18.291C13.9281 18.3395 13.6092 18.3498 10.9167 18.3498C8.22411 18.3498 7.90526 18.3395 6.84214 18.291C5.85902 18.2461 5.32512 18.0819 4.96981 17.9438C4.49914 17.7609 4.16325 17.5424 3.81038 17.1895C3.45755 16.8367 3.23901 16.5008 3.05613 16.0301C2.91804 15.6748 2.75378 15.1409 2.70891 14.1578C2.6604 13.0945 2.65015 12.7756 2.65015 10.0833C2.65015 7.3909 2.6604 7.07197 2.70891 6.00873C2.75378 5.02561 2.91804 4.49171 3.05613 4.1364C3.23901 3.66577 3.45755 3.32984 3.81038 2.97701C4.16325 2.62418 4.49914 2.40564 4.96981 2.22272C5.32512 2.08467 5.85902 1.92041 6.84214 1.87554C7.90538 1.82703 8.22431 1.81678 10.9167 1.81678Z" fill="white"/>
<path d="M10.9167 13.4444C9.06036 13.4444 7.55555 11.9396 7.55555 10.0833C7.55555 8.22696 9.06036 6.72215 10.9167 6.72215C12.773 6.72215 14.2778 8.22696 14.2778 10.0833C14.2778 11.9396 12.773 13.4444 10.9167 13.4444ZM10.9167 4.90533C8.05696 4.90533 5.73874 7.22355 5.73874 10.0833C5.73874 12.943 8.05696 15.2612 10.9167 15.2612C13.7764 15.2612 16.0946 12.943 16.0946 10.0833C16.0946 7.22355 13.7764 4.90533 10.9167 4.90533Z" fill="white"/>
<path d="M17.5092 4.70076C17.5092 5.36903 16.9674 5.91074 16.2992 5.91074C15.6309 5.91074 15.0892 5.36903 15.0892 4.70076C15.0892 4.03249 15.6309 3.49078 16.2992 3.49078C16.9674 3.49078 17.5092 4.03249 17.5092 4.70076Z" fill="white"/>
</svg>
