<svg width="20" height="20" viewBox="0 0 20 20" fill="none" xmlns="http://www.w3.org/2000/svg">
<g clip-path="url(#clip0_1_2)">
<path fill-rule="evenodd" clip-rule="evenodd" d="M17.5565 0C18.9051 0 20 1.09492 20 2.44352V17.5565C20 18.9051 18.9051 20 17.5565 20H2.44352C1.09492 20 0 18.9051 0 17.5565V2.44352C0 1.09492 1.09488 0 2.44352 0H17.5565V0ZM6.26801 16.5343V7.71723H3.33676V16.5343H6.26801ZM16.8359 16.5343V11.4781C16.8359 8.76977 15.3899 7.50988 13.4617 7.50988C11.9068 7.50988 11.2104 8.365 10.8204 8.96559V7.71723H7.88988C7.92875 8.54461 7.88988 16.5343 7.88988 16.5343H10.8204V11.6102C10.8204 11.3466 10.8393 11.0832 10.917 10.8948C11.1285 10.3684 11.611 9.82316 12.4207 9.82316C13.4806 9.82316 13.9053 10.632 13.9053 11.8168V16.5343H16.8359V16.5343ZM4.82219 3.4657C3.8193 3.4657 3.16406 4.12504 3.16406 4.98922C3.16406 5.83523 3.79938 6.51273 4.7834 6.51273H4.8023C5.82438 6.51273 6.46059 5.83523 6.46059 4.98922C6.44164 4.12625 5.82617 3.46758 4.82219 3.4657V3.4657Z" fill="white"/>
</g>
<defs>
<clipPath id="clip0_1_2">
<rect width="20" height="20" fill="white"/>
</clipPath>
</defs>
</svg>
